PathFileType	4	(X/Y/Z)	C:\Users\italobelli\Desktop\GitHub\PTbot_officialCBL\Personal_Results\FLX23_noisy1.trc
DataRate	CameraRate	NumFrames	NumMarkers	Units	OrigDataRate	OrigDataStartFrame	OrigNumFrames
106.533333	106.533333	51	9	m	106.533333	501	800
Frame#	Time		gu		centelbow		EpL		centpxt8		centijc7		ij		ts		aa		ai
			X1	Y1	Z1	X2	Y2	Z2	X3	Y3	Z3	X4	Y4	Z4	X5	Y5	Z5	X6	Y6	Z6	X7	Y7	Z7	X8	Y8	Z8	X9	Y9	Z9

501	4.6934	-0.080427	0.064542	0.13036	0.128	0.056236	0.25758	0.12227	0.087785	0.26231	-0.046816	-0.15316	-0.008669	-0.046816	0.031938	-0.008669	0	0	0	-0.15243	0.0066964	0.049173	-0.11185	0.078589	0.13489	-0.1326	-0.080052	0.1189
502	4.7028	-0.080235	0.064003	0.13088	0.12781	0.052254	0.25809	0.1225	0.08383	0.2631	-0.046816	-0.15316	-0.008669	-0.046816	0.031938	-0.008669	0	0	0	-0.15242	0.0070189	0.049073	-0.11171	0.078175	0.13532	-0.13297	-0.080272	0.11822
503	4.7121	-0.080044	0.063449	0.1314	0.12756	0.048254	0.25859	0.12269	0.07985	0.26388	-0.046816	-0.15316	-0.008669	-0.046816	0.031938	-0.008669	0	0	0	-0.1524	0.0073417	0.048975	-0.11157	0.077753	0.13575	-0.13333	-0.080491	0.11755
504	4.7215	-0.079855	0.062879	0.13192	0.12728	0.044239	0.25908	0.12285	0.07585	0.26465	-0.046816	-0.15316	-0.008669	-0.046816	0.031938	-0.008669	0	0	0	-0.15238	0.0076648	0.048877	-0.11143	0.077323	0.13619	-0.1337	-0.080709	0.11687
505	4.7309	-0.079667	0.062296	0.13245	0.12695	0.040212	0.25956	0.12296	0.071832	0.26541	-0.046816	-0.15316	-0.008669	-0.046816	0.031938	-0.008669	0	0	0	-0.15236	0.007988	0.048781	-0.11129	0.076886	0.13663	-0.13406	-0.080926	0.11618
506	4.7403	-0.079482	0.0617	0.13298	0.12659	0.036176	0.26002	0.12303	0.067799	0.26615	-0.046816	-0.15316	-0.008669	-0.046816	0.031938	-0.008669	0	0	0	-0.15233	0.0083113	0.048687	-0.11115	0.076442	0.13707	-0.13442	-0.08114	0.1155
507	4.7497	-0.079298	0.061091	0.13351	0.12618	0.032133	0.26047	0.12307	0.063754	0.26688	-0.046816	-0.15316	-0.008669	-0.046816	0.031938	-0.008669	0	0	0	-0.15229	0.0086344	0.048594	-0.11102	0.075992	0.13751	-0.13478	-0.081352	0.11481
508	4.7591	-0.079116	0.060472	0.13404	0.12573	0.028087	0.26091	0.12306	0.059699	0.26759	-0.046816	-0.15316	-0.008669	-0.046816	0.031938	-0.008669	0	0	0	-0.15225	0.0089574	0.048503	-0.11088	0.075536	0.13796	-0.13514	-0.081562	0.11412
509	4.7685	-0.078937	0.059842	0.13457	0.12524	0.02404	0.26133	0.12301	0.055638	0.26828	-0.046816	-0.15316	-0.008669	-0.046816	0.031938	-0.008669	0	0	0	-0.15221	0.00928	0.048415	-0.11075	0.075074	0.1384	-0.1355	-0.081769	0.11343
510	4.7778	-0.07876	0.059202	0.1351	0.12471	0.019995	0.26174	0.12293	0.051574	0.26896	-0.046816	-0.15316	-0.008669	-0.046816	0.031938	-0.008669	0	0	0	-0.15217	0.0096022	0.048329	-0.11061	0.074608	0.13885	-0.13586	-0.081972	0.11273
511	4.7872	-0.078587	0.058554	0.13564	0.12414	0.015956	0.26213	0.1228	0.047509	0.26961	-0.046816	-0.15316	-0.008669	-0.046816	0.031938	-0.008669	0	0	0	-0.15212	0.0099238	0.048245	-0.11048	0.074137	0.13929	-0.13621	-0.082172	0.11204
512	4.7966	-0.078416	0.057899	0.13617	0.12353	0.011924	0.2625	0.12263	0.043446	0.27024	-0.046816	-0.15316	-0.008669	-0.046816	0.031938	-0.008669	0	0	0	-0.15206	0.010245	0.048163	-0.11035	0.073662	0.13974	-0.13656	-0.082368	0.11135
513	4.806	-0.078248	0.057236	0.1367	0.12289	0.0079034	0.26286	0.12243	0.039388	0.27085	-0.046816	-0.15316	-0.008669	-0.046816	0.031938	-0.008669	0	0	0	-0.152	0.010565	0.048085	-0.11021	0.073183	0.14019	-0.13691	-0.08256	0.11066
514	4.8154	-0.078083	0.056568	0.13723	0.12221	0.0038964	0.2632	0.12218	0.035338	0.27144	-0.046816	-0.15316	-0.008669	-0.046816	0.031938	-0.008669	0	0	0	-0.15194	0.010884	0.048009	-0.11008	0.072702	0.14063	-0.13725	-0.082746	0.10996
515	4.8248	-0.077922	0.055895	0.13776	0.1215	-9.3911e-05	0.26351	0.12189	0.031299	0.272	-0.046816	-0.15316	-0.008669	-0.046816	0.031938	-0.008669	0	0	0	-0.15187	0.011202	0.047936	-0.10995	0.072217	0.14107	-0.13759	-0.082928	0.10927
516	4.8342	-0.077765	0.055219	0.13828	0.12074	-0.0040647	0.26381	0.12156	0.027274	0.27253	-0.046816	-0.15316	-0.008669	-0.046816	0.031938	-0.008669	0	0	0	-0.15181	0.011519	0.047866	-0.10982	0.071731	0.14152	-0.13792	-0.083105	0.10858
517	4.8436	-0.077611	0.054539	0.13881	0.11996	-0.0080131	0.26409	0.12119	0.023266	0.27304	-0.046816	-0.15316	-0.008669	-0.046816	0.031938	-0.008669	0	0	0	-0.15173	0.011835	0.0478	-0.10969	0.071243	0.14196	-0.13825	-0.083276	0.10789
518	4.8529	-0.077462	0.053857	0.13933	0.11914	-0.011936	0.26434	0.12078	0.019277	0.27351	-0.046816	-0.15316	-0.008669	-0.046816	0.031938	-0.008669	0	0	0	-0.15166	0.01215	0.047737	-0.10956	0.070754	0.14239	-0.13858	-0.08344	0.10721
519	4.8623	-0.077317	0.053174	0.13984	0.11828	-0.015831	0.26457	0.12032	0.01531	0.27396	-0.046816	-0.15316	-0.008669	-0.046816	0.031938	-0.008669	0	0	0	-0.15158	0.012463	0.047677	-0.10944	0.070264	0.14283	-0.1389	-0.083599	0.10653
520	4.8717	-0.077176	0.052491	0.14035	0.11739	-0.019695	0.26478	0.11983	0.011369	0.27438	-0.046816	-0.15316	-0.008669	-0.046816	0.031938	-0.008669	0	0	0	-0.15149	0.012774	0.047622	-0.10931	0.069773	0.14326	-0.13921	-0.08375	0.10584
521	4.8811	-0.077039	0.051808	0.14086	0.11647	-0.023525	0.26497	0.11929	0.0074556	0.27476	-0.046816	-0.15316	-0.008669	-0.046816	0.031938	-0.008669	0	0	0	-0.15141	0.013084	0.04757	-0.10918	0.069283	0.14368	-0.13951	-0.083895	0.10517
522	4.8905	-0.076908	0.051127	0.14136	0.11552	-0.027318	0.26513	0.11871	0.0035734	0.27512	-0.046816	-0.15316	-0.008669	-0.046816	0.031938	-0.008669	0	0	0	-0.15132	0.013392	0.047522	-0.10905	0.068793	0.14411	-0.13981	-0.084032	0.10449
523	4.8999	-0.076781	0.050448	0.14186	0.11454	-0.031071	0.26527	0.11809	-0.00027483	0.27543	-0.046816	-0.15316	-0.008669	-0.046816	0.031938	-0.008669	0	0	0	-0.15123	0.013697	0.047479	-0.10893	0.068305	0.14453	-0.14011	-0.084161	0.10382
524	4.9093	-0.07666	0.049773	0.14235	0.11352	-0.034782	0.26538	0.11743	-0.0040863	0.27572	-0.046816	-0.15316	-0.008669	-0.046816	0.031938	-0.008669	0	0	0	-0.15113	0.014001	0.047439	-0.1088	0.067818	0.14494	-0.14039	-0.084282	0.10316
525	4.9186	-0.076543	0.049102	0.14283	0.11248	-0.038447	0.26546	0.11673	-0.0078581	0.27596	-0.046816	-0.15316	-0.008669	-0.046816	0.031938	-0.008669	0	0	0	-0.15103	0.014303	0.047405	-0.10867	0.067333	0.14535	-0.14067	-0.084395	0.1025
526	4.928	-0.076432	0.048437	0.14331	0.1114	-0.042064	0.26552	0.11598	-0.011587	0.27617	-0.046816	-0.15316	-0.008669	-0.046816	0.031938	-0.008669	0	0	0	-0.15093	0.014602	0.047375	-0.10855	0.06685	0.14575	-0.14094	-0.084499	0.10185
527	4.9374	-0.076327	0.047777	0.14378	0.1103	-0.045629	0.26554	0.11519	-0.015271	0.27634	-0.046816	-0.15316	-0.008669	-0.046816	0.031938	-0.008669	0	0	0	-0.15083	0.014899	0.047349	-0.10842	0.06637	0.14615	-0.14119	-0.084594	0.1012
528	4.9468	-0.076228	0.047124	0.14424	0.10917	-0.04914	0.26554	0.11436	-0.018907	0.27646	-0.046816	-0.15316	-0.008669	-0.046816	0.031938	-0.008669	0	0	0	-0.15072	0.015193	0.047329	-0.1083	0.065894	0.14654	-0.14145	-0.084679	0.10055
529	4.9562	-0.076135	0.04648	0.14469	0.10801	-0.052594	0.26551	0.11349	-0.022491	0.27655	-0.046816	-0.15316	-0.008669	-0.046816	0.031938	-0.008669	0	0	0	-0.15061	0.015485	0.047314	-0.10817	0.065422	0.14692	-0.14169	-0.084755	0.099917
530	4.9656	-0.076048	0.045844	0.14514	0.10682	-0.055989	0.26545	0.11257	-0.026022	0.27659	-0.046816	-0.15316	-0.008669	-0.046816	0.031938	-0.008669	0	0	0	-0.1505	0.015774	0.047304	-0.10805	0.064954	0.1473	-0.14192	-0.08482	0.099288
531	4.975	-0.075967	0.045218	0.14557	0.10561	-0.05932	0.26536	0.11162	-0.029495	0.27659	-0.046816	-0.15316	-0.008669	-0.046816	0.031938	-0.008669	0	0	0	-0.15039	0.01606	0.047299	-0.10792	0.06449	0.14767	-0.14214	-0.084874	0.098665
532	4.9844	-0.075893	0.044603	0.146	0.10437	-0.062586	0.26523	0.11061	-0.032908	0.27655	-0.046816	-0.15316	-0.008669	-0.046816	0.031938	-0.008669	0	0	0	-0.15027	0.016343	0.0473	-0.1078	0.064032	0.14803	-0.14235	-0.084918	0.098051
533	4.9937	-0.075825	0.043999	0.14641	0.10311	-0.065783	0.26507	0.10957	-0.036259	0.27646	-0.046816	-0.15316	-0.008669	-0.046816	0.031938	-0.008669	0	0	0	-0.15015	0.016623	0.047306	-0.10767	0.06358	0.14838	-0.14255	-0.084951	0.097444
534	5.0031	-0.075764	0.043407	0.14681	0.10182	-0.068914	0.26488	0.10848	-0.03955	0.27632	-0.046816	-0.15316	-0.008669	-0.046816	0.031938	-0.008669	0	0	0	-0.15003	0.0169	0.047319	-0.10755	0.063133	0.14872	-0.14274	-0.084972	0.096844
535	5.0125	-0.075706	0.042807	0.14722	0.10046	-0.072048	0.26465	0.10733	-0.04285	0.27615	-0.046816	-0.15316	-0.008669	-0.046816	0.031938	-0.008669	0	0	0	-0.1499	0.017181	0.047336	-0.10742	0.06268	0.14907	-0.14293	-0.084985	0.096239
536	5.0219	-0.075649	0.042194	0.14763	0.09904	-0.075205	0.26439	0.10613	-0.046177	0.27595	-0.046816	-0.15316	-0.008669	-0.046816	0.031938	-0.008669	0	0	0	-0.14976	0.017468	0.047358	-0.10729	0.062219	0.14941	-0.14311	-0.084991	0.095623
537	5.0313	-0.075594	0.04157	0.14804	0.09755	-0.078381	0.26409	0.10486	-0.049531	0.27573	-0.046816	-0.15316	-0.008669	-0.046816	0.031938	-0.008669	0	0	0	-0.14961	0.017759	0.047384	-0.10716	0.061748	0.14976	-0.14329	-0.08499	0.094998
538	5.0407	-0.075539	0.040933	0.14845	0.095994	-0.081575	0.26376	0.10353	-0.052907	0.27548	-0.046816	-0.15316	-0.008669	-0.046816	0.031938	-0.008669	0	0	0	-0.14945	0.018055	0.047415	-0.10703	0.06127	0.15011	-0.14346	-0.084983	0.094365
539	5.0501	-0.075486	0.040286	0.14887	0.094375	-0.084784	0.26339	0.10215	-0.056304	0.27521	-0.046816	-0.15316	-0.008669	-0.046816	0.031938	-0.008669	0	0	0	-0.14929	0.018355	0.04745	-0.1069	0.060784	0.15046	-0.14364	-0.084969	0.093723
540	5.0594	-0.075435	0.039628	0.14929	0.092694	-0.088005	0.26299	0.10071	-0.059718	0.27492	-0.046816	-0.15316	-0.008669	-0.046816	0.031938	-0.008669	0	0	0	-0.14912	0.018659	0.047489	-0.10676	0.060291	0.15081	-0.14381	-0.08495	0.093075
541	5.0688	-0.075384	0.038961	0.14971	0.090954	-0.091236	0.26256	0.099226	-0.063148	0.2746	-0.046816	-0.15316	-0.008669	-0.046816	0.031938	-0.008669	0	0	0	-0.14893	0.018966	0.047532	-0.10662	0.059792	0.15116	-0.14397	-0.084925	0.09242
542	5.0782	-0.075335	0.038284	0.15014	0.089158	-0.094475	0.2621	0.097687	-0.06659	0.27426	-0.046816	-0.15316	-0.008669	-0.046816	0.031938	-0.008669	0	0	0	-0.14875	0.019276	0.047579	-0.10648	0.059285	0.15151	-0.14414	-0.084894	0.091759
543	5.0876	-0.075286	0.037599	0.15056	0.087306	-0.097719	0.26161	0.0961	-0.070043	0.2739	-0.046816	-0.15316	-0.008669	-0.046816	0.031938	-0.008669	0	0	0	-0.14855	0.019589	0.047629	-0.10634	0.058773	0.15186	-0.1443	-0.084858	0.091094
544	5.097	-0.075239	0.036905	0.15099	0.085402	-0.10097	0.2611	0.094465	-0.073503	0.27352	-0.046816	-0.15316	-0.008669	-0.046816	0.031938	-0.008669	0	0	0	-0.14835	0.019903	0.047683	-0.1062	0.058256	0.15221	-0.14446	-0.084818	0.090424
545	5.1064	-0.075193	0.036205	0.15142	0.083448	-0.10421	0.26056	0.092785	-0.076968	0.27312	-0.046816	-0.15316	-0.008669	-0.046816	0.031938	-0.008669	0	0	0	-0.14814	0.020219	0.047741	-0.10606	0.057733	0.15256	-0.14462	-0.084773	0.089751
546	5.1158	-0.075147	0.035497	0.15184	0.081445	-0.10746	0.25999	0.091062	-0.080435	0.2727	-0.046816	-0.15316	-0.008669	-0.046816	0.031938	-0.008669	0	0	0	-0.14793	0.020537	0.047801	-0.10592	0.057206	0.15291	-0.14477	-0.084723	0.089074
547	5.1252	-0.075103	0.034782	0.15227	0.079397	-0.1107	0.2594	0.089297	-0.083902	0.27227	-0.046816	-0.15316	-0.008669	-0.046816	0.031938	-0.008669	0	0	0	-0.14771	0.020855	0.047865	-0.10578	0.056674	0.15326	-0.14492	-0.08467	0.088396
548	5.1345	-0.075059	0.034063	0.15269	0.077304	-0.11393	0.25879	0.087492	-0.087367	0.27182	-0.046816	-0.15316	-0.008669	-0.046816	0.031938	-0.008669	0	0	0	-0.14749	0.021174	0.047932	-0.10564	0.056139	0.15361	-0.14507	-0.084612	0.087716
549	5.1439	-0.075017	0.033337	0.15312	0.07517	-0.11715	0.25816	0.085649	-0.090826	0.27135	-0.046816	-0.15316	-0.008669	-0.046816	0.031938	-0.008669	0	0	0	-0.14726	0.021493	0.048002	-0.10549	0.0556	0.15396	-0.14522	-0.084551	0.087036
550	5.1533	-0.074975	0.032608	0.15354	0.072996	-0.12036	0.2575	0.08377	-0.094277	0.27087	-0.046816	-0.15316	-0.008669	-0.046816	0.031938	-0.008669	0	0	0	-0.14703	0.021812	0.048075	-0.10535	0.055059	0.15431	-0.14536	-0.084487	0.086356
551	5.1627	-0.074934	0.031874	0.15396	0.070785	-0.12355	0.25683	0.081857	-0.097717	0.27037	-0.046816	-0.15316	-0.008669	-0.046816	0.031938	-0.008669	0	0	0	-0.14679	0.022129	0.04815	-0.10521	0.054514	0.15465	-0.14551	-0.08442	0.085676
